<?xml version="1.0" encoding="UTF-8" standalone="no"?>
<!-- Created with Inkscape (http://www.inkscape.org/) -->

<svg
   width="64.000008"
   height="138.19913"
   viewBox="0 0 16.933335 36.565186"
   version="1.1"
   id="svg5"
   xml:space="preserve"
   xmlns:inkscape="http://www.inkscape.org/namespaces/inkscape"
   xmlns:sodipodi="http://sodipodi.sourceforge.net/DTD/sodipodi-0.dtd"
   xmlns="http://www.w3.org/2000/svg"
   xmlns:svg="http://www.w3.org/2000/svg"><sodipodi:namedview
     id="namedview7"
     pagecolor="#ffffff"
     bordercolor="#cccccc"
     borderopacity="1"
     inkscape:showpageshadow="0"
     inkscape:pageopacity="1"
     inkscape:pagecheckerboard="0"
     inkscape:deskcolor="#d1d1d1"
     inkscape:document-units="mm"
     showgrid="false"
     inkscape:zoom="1.2168336"
     inkscape:cx="752.77342"
     inkscape:cy="493.90483"
     inkscape:window-width="1920"
     inkscape:window-height="1012"
     inkscape:window-x="0"
     inkscape:window-y="32"
     inkscape:window-maximized="1"
     inkscape:current-layer="layer1" /><defs
     id="defs2" /><g
     inkscape:label="Layer 1"
     inkscape:groupmode="layer"
     id="layer1"
     transform="translate(-216.49407,-116.00409)"><g
       id="g1998"
       transform="translate(59.183403,14.134349)"><rect
         style="fill:#f4e3d7;stroke:#a05a2c;stroke-width:0.0759456"
         id="rect1197"
         width="16.857388"
         height="16.857388"
         x="157.34863"
         y="101.90771"
         inkscape:export-filename="pizza.svg"
         inkscape:export-xdpi="96"
         inkscape:export-ydpi="96" /><g
         id="g1143"
         transform="matrix(0.44254052,0,0,0.49002736,88.118314,52.388584)"><ellipse
           style="fill:#ffccaa;stroke:#000000;stroke-width:0.102277"
           id="path733"
           cx="175.4845"
           cy="118.47079"
           rx="17.203911"
           ry="15.482491" /><ellipse
           style="fill:#d38d5f;stroke:#000000;stroke-width:0.0918533"
           id="ellipse839"
           cx="175.4845"
           cy="118.47079"
           rx="15.450548"
           ry="13.904569" /><rect
           style="fill:#ffcc00;stroke:none;stroke-width:0.102277"
           id="rect893"
           width="2.9071901"
           height="3.1323481"
           x="162.90382"
           y="120.81483" /><circle
           style="fill:#008000;stroke:none;stroke-width:0.0622554"
           id="path947"
           cx="177.50974"
           cy="108.36558"
           r="1.2181354" /><path
           sodipodi:type="star"
           style="fill:#d40000;stroke:none;stroke-width:0.127794"
           id="path1001"
           inkscape:flatsided="false"
           sodipodi:sides="3"
           sodipodi:cx="151.77026"
           sodipodi:cy="78.603081"
           sodipodi:r1="4.3731117"
           sodipodi:r2="2.1865556"
           sodipodi:arg1="0.60868931"
           sodipodi:arg2="1.6558869"
           inkscape:rounded="0"
           inkscape:randomized="0"
           d="m 155.35796,81.103594 -3.77353,-0.321869 -3.77352,-0.321868 2.16551,-3.107033 2.16551,-3.107033 1.60801,3.428902 z"
           inkscape:transform-center-x="0.10864388"
           inkscape:transform-center-y="-0.54276724"
           transform="matrix(0.584634,0,0,0.584634,77.310488,67.656255)" /><rect
           style="fill:#ffcc00;stroke:none;stroke-width:0.102277"
           id="rect1003"
           width="2.9071901"
           height="3.1323481"
           x="169.87822"
           y="123.94718" /><circle
           style="fill:#008000;stroke:none;stroke-width:0.0622554"
           id="circle1005"
           cx="185.46159"
           cy="110.80186"
           r="1.2181354" /><path
           sodipodi:type="star"
           style="fill:#d40000;stroke:none;stroke-width:0.127794"
           id="path1007"
           inkscape:flatsided="false"
           sodipodi:sides="3"
           sodipodi:cx="151.77026"
           sodipodi:cy="78.603081"
           sodipodi:r1="4.3731117"
           sodipodi:r2="2.1865556"
           sodipodi:arg1="0.60868931"
           sodipodi:arg2="1.6558869"
           inkscape:rounded="0"
           inkscape:randomized="0"
           d="m 155.35796,81.103594 -3.77353,-0.321869 -3.77352,-0.321868 2.16551,-3.107033 2.16551,-3.107033 1.60801,3.428902 z"
           inkscape:transform-center-x="0.10864377"
           inkscape:transform-center-y="-0.54276759"
           transform="matrix(0.584634,0,0,0.584634,83.554932,64.17245)" /><rect
           style="fill:#ffcc00;stroke:none;stroke-width:0.102277"
           id="rect1009"
           width="2.9071901"
           height="3.1323481"
           x="-157.88286"
           y="-156.883"
           transform="rotate(167.70423)" /><circle
           style="fill:#008000;stroke:none;stroke-width:0.0622554"
           id="circle1011"
           cx="-144.56851"
           cy="-164.53601"
           r="1.2181354"
           transform="rotate(167.70423)" /><path
           sodipodi:type="star"
           style="fill:#d40000;stroke:none;stroke-width:0.127794"
           id="path1013"
           inkscape:flatsided="false"
           sodipodi:sides="3"
           sodipodi:cx="151.77026"
           sodipodi:cy="78.603081"
           sodipodi:r1="4.3731117"
           sodipodi:r2="2.1865556"
           sodipodi:arg1="0.60868931"
           sodipodi:arg2="1.6558869"
           inkscape:rounded="0"
           inkscape:randomized="0"
           d="m 155.35796,81.103594 -3.77353,-0.321869 -3.77352,-0.321868 2.16551,-3.107033 2.16551,-3.107033 1.60801,3.428902 z"
           inkscape:transform-center-x="0.16509092"
           inkscape:transform-center-y="0.49083112"
           transform="matrix(-0.57122325,0.12450266,-0.12450266,-0.57122325,281.13022,151.02662)" /><ellipse
           style="fill:#ffcc00;stroke:none;stroke-width:0.102277"
           id="path1069"
           cx="180.72572"
           cy="113.63652"
           rx="1.5628082"
           ry="1.4356546" /><path
           id="path1071"
           style="fill:#ffcc00;stroke-width:0.110581"
           d="m 175.4779,115.58096 a 3.2500312,2.8680723 0 0 0 -3.2499,2.86817 3.2500312,2.8680723 0 0 0 3.2499,2.86818 3.2500312,2.8680723 0 0 0 3.24991,-2.86818 3.2500312,2.8680723 0 0 0 -3.24991,-2.86817 z m 0,1.13114 a 1.5226691,1.7367623 0 0 1 1.5228,1.73703 1.5226691,1.7367623 0 0 1 -1.5228,1.73662 1.5226691,1.7367623 0 0 1 -1.52279,-1.73662 1.5226691,1.7367623 0 0 1 1.52279,-1.73703 z" /></g></g><g
       id="g1981"
       transform="matrix(1,0,0,1.2302776,-146.37039,97.275768)"><g
         id="g10171"
         transform="matrix(1.2609697,0.07303624,-0.07303624,1.2609697,361.18292,25.013541)"><ellipse
           style="fill:#ffc0c0;fill-opacity:1;stroke:#ffaaaa;stroke-width:0.1;stroke-dasharray:none"
           id="path10095"
           cx="3.7799966"
           cy="4.5363789"
           rx="1.9252098"
           ry="1.6539853" /><ellipse
           style="fill:#ffc0c0;fill-opacity:1;stroke:#ffaaaa;stroke-width:0.1;stroke-dasharray:none"
           id="ellipse10097"
           cx="13.022349"
           cy="4.1044641"
           rx="1.9252098"
           ry="1.6539853" /><ellipse
           style="fill:#cccccc;fill-opacity:1;stroke:#b3b3b3;stroke-width:0.1;stroke-dasharray:none"
           id="path10093"
           cx="8.4666662"
           cy="9.7041664"
           rx="6.0549107"
           ry="5.5497022" /></g></g></g></svg>
