<?xml version="1.0" encoding="UTF-8" standalone="no"?>
<!-- Created with Inkscape (http://www.inkscape.org/) -->

<svg
   width="127.99998"
   height="128.00003"
   viewBox="0 0 33.866661 33.866675"
   version="1.1"
   id="svg5"
   xml:space="preserve"
   xmlns:inkscape="http://www.inkscape.org/namespaces/inkscape"
   xmlns:sodipodi="http://sodipodi.sourceforge.net/DTD/sodipodi-0.dtd"
   xmlns="http://www.w3.org/2000/svg"
   xmlns:svg="http://www.w3.org/2000/svg"><sodipodi:namedview
     id="namedview7"
     pagecolor="#ffffff"
     bordercolor="#cccccc"
     borderopacity="1"
     inkscape:showpageshadow="0"
     inkscape:pageopacity="1"
     inkscape:pagecheckerboard="0"
     inkscape:deskcolor="#d1d1d1"
     inkscape:document-units="mm"
     showgrid="false"
     inkscape:zoom="1.2168336"
     inkscape:cx="752.77342"
     inkscape:cy="493.90483"
     inkscape:window-width="1920"
     inkscape:window-height="1012"
     inkscape:window-x="0"
     inkscape:window-y="32"
     inkscape:window-maximized="1"
     inkscape:current-layer="layer1" /><defs
     id="defs2" /><g
     inkscape:label="Layer 1"
     inkscape:groupmode="layer"
     id="layer1"
     transform="translate(-61.539539,-100.18139)"><g
       id="g3035"><rect
         style="fill:#2b6a23;fill-opacity:1;stroke:#a05a2c;stroke-width:0.0806798"
         id="rect2227"
         width="33.785988"
         height="33.785988"
         x="61.579876"
         y="100.22173" /><rect
         style="fill:#333333;stroke:#a05a2c;stroke-width:0.06725"
         id="rect2229"
         width="28.162079"
         height="28.162081"
         x="64.39183"
         y="103.03367" /><path
         style="fill:#4d4d4d;fill-opacity:1;stroke:#a05a2c;stroke-width:0.0617789"
         d="m 66.248739,105.82661 c 6.99021,8.74638 7.892415,8.40079 7.892415,8.40079"
         id="path2911" /><path
         style="fill:#4d4d4d;fill-opacity:1;stroke:#a05a2c;stroke-width:0.0661421"
         d="M 91.782978,130.2855 C 81.477482,125.70896 81.264179,122.58799 81.264179,122.58799"
         id="path2913"
         sodipodi:nodetypes="cc" /><path
         style="fill:#4d4d4d;fill-opacity:1;stroke:#a05a2c;stroke-width:0.0661421"
         d="m 90.739729,105.66279 c -9.580023,6.06065 -9.443265,7.20733 -9.443265,7.20733"
         id="path2915" /><path
         style="fill:#4d4d4d;fill-opacity:1;stroke:#a05a2c;stroke-width:0.0661421"
         d="m 74.917962,121.80879 c -9.580023,6.06064 -9.443265,7.20732 -9.443265,7.20732"
         id="path2917" /><path
         sodipodi:type="star"
         style="fill:#d40000;stroke:none;stroke-width:0.127794"
         id="path2965"
         inkscape:flatsided="false"
         sodipodi:sides="3"
         sodipodi:cx="151.77026"
         sodipodi:cy="78.603081"
         sodipodi:r1="4.3731117"
         sodipodi:r2="2.1865556"
         sodipodi:arg1="0.60868931"
         sodipodi:arg2="1.6558869"
         inkscape:rounded="0"
         inkscape:randomized="0"
         d="m 155.35796,81.103594 -3.77353,-0.321869 -3.77352,-0.321868 2.16551,-3.107033 2.16551,-3.107033 1.60801,3.428902 z"
         inkscape:transform-center-x="0.10864388"
         inkscape:transform-center-y="-0.54276724"
         transform="matrix(0.25872423,0,0,0.28648666,33.957336,92.989715)" /><path
         sodipodi:type="star"
         style="fill:#d40000;stroke:none;stroke-width:0.127794"
         id="path2967"
         inkscape:flatsided="false"
         sodipodi:sides="3"
         sodipodi:cx="151.77026"
         sodipodi:cy="78.603081"
         sodipodi:r1="4.3731117"
         sodipodi:r2="2.1865556"
         sodipodi:arg1="0.60868931"
         sodipodi:arg2="1.6558869"
         inkscape:rounded="0"
         inkscape:randomized="0"
         d="m 155.35796,81.103594 -3.77353,-0.321869 -3.77352,-0.321868 2.16551,-3.107033 2.16551,-3.107033 1.60801,3.428902 z"
         inkscape:transform-center-x="0.10864377"
         inkscape:transform-center-y="-0.54276759"
         transform="matrix(0.25872423,0,0,0.28648666,38.10451,88.572704)" /><path
         id="path2969"
         style="fill:#ffcc00;stroke-width:0.0514953"
         d="m 83.934789,115.24248 a 1.4382705,1.4054339 0 0 0 -1.43821,1.40548 1.4382705,1.4054339 0 0 0 1.43821,1.40548 1.4382705,1.4054339 0 0 0 1.43822,-1.40548 1.4382705,1.4054339 0 0 0 -1.43822,-1.40548 z m 0,0.55429 a 0.67384278,0.85106104 0 0 1 0.6739,0.85119 0.67384278,0.85106104 0 0 1 -0.6739,0.85099 0.67384278,0.85106104 0 0 1 -0.6739,-0.85099 0.67384278,0.85106104 0 0 1 0.6739,-0.85119 z" /><path
         sodipodi:type="star"
         style="fill:#4d4d4d;fill-opacity:1;stroke:#a05a2c;stroke-width:0.127794"
         id="path3023"
         inkscape:flatsided="false"
         sodipodi:sides="3"
         sodipodi:cx="73.944183"
         sodipodi:cy="115.73364"
         sodipodi:r1="1.213807"
         sodipodi:r2="0.60690343"
         sodipodi:arg1="1.7537756"
         sodipodi:arg2="2.8009732"
         inkscape:rounded="0"
         inkscape:randomized="0"
         d="m 73.723319,116.92719 -0.351171,-0.9908 -0.351172,-0.99079 1.033639,0.19127 1.03364,0.19127 -0.682468,0.79953 z"
         inkscape:transform-center-x="-0.11043119"
         inkscape:transform-center-y="0.20274743"
         transform="translate(3.5362595,3.3632903)" /></g></g></svg>
